<svg width="56.401" height="56.4" xmlns="http://www.w3.org/2000/svg">
 <g>
  <title>background</title>
  <rect x="-1" y="-1" width="17.24346" height="17.24319" id="canvas_background" fill="none"/>
 </g>

 <g>
  <title>Layer 1</title>
  <g id="svg_1" stroke="null">
   <g id="svg_2" stroke="null">
    <polygon fill="#111f3c" points="27.726460218429565,19.24692988395691 22.190762281417847,19.24692988395691 19.694315671920776,23.85314440727234 24.909199476242065,23.85314440727234 " id="svg_3" stroke="null"/>
    <polygon fill="#111f3c" points="37.166496992111206,19.24692988395691 31.630799055099487,19.24692988395691 29.134352445602417,23.85314440727234 34.349236249923706,23.85314440727234 " id="svg_4" stroke="null"/>
    <polygon fill="#111f3c" points="44.341660261154175,19.24692988395691 41.07157588005066,19.24692988395691 38.57439112663269,23.85314440727234 44.341660261154175,23.85314440727234 " id="svg_5" stroke="null"/>
    <polygon fill="#111f3c" points="18.285683393478394,19.31534457206726 2.85712468624115,19.31534457206726 2.85712468624115,20.611061811447144 2.85712468624115,23.85314440727234 15.469159841537476,23.85314440727234 " id="svg_6" stroke="null"/>
    <path fill="#111f3c" d="m2.96775,46.97218c0,1.60708 1.37618,2.90908 3.07317,2.90908l35.33893,0c1.69699,0 3.07317,-1.302 3.07317,-2.90908l0,-20.1199l-41.48527,0l0,20.1199zm15.53034,-11.39267c0,-1.60638 1.23089,-2.32615 2.74867,-1.60778l6.53723,3.09408c1.51778,0.71767 1.51778,1.88284 0,2.6019l-6.53723,3.09408c-1.51778,0.71767 -2.74867,-0.00209 -2.74867,-1.60778l0,-5.57451l0,0.00001z" id="svg_7" stroke="null"/>
   </g>
  </g>
  <g id="svg_8"/>
  <g id="svg_9"/>
  <g id="svg_10"/>
  <g id="svg_11"/>
  <g id="svg_12"/>
  <g id="svg_13"/>
  <g id="svg_14"/>
  <g id="svg_15"/>
  <g id="svg_16"/>
  <g id="svg_17"/>
  <g id="svg_18"/>
  <g id="svg_19"/>
  <g id="svg_20"/>
  <g id="svg_21"/>
  <g id="svg_22"/>
 </g>
</svg>