<svg width="56.401" height="56.4" xmlns="http://www.w3.org/2000/svg">
 <g>
  <title>background</title>
  <rect x="-1" y="-1" width="58.401" height="58.4" id="canvas_background" fill="none"/>
 </g>

 <g>
  <title>Layer 1</title>
  <g id="svg_1" stroke="null">
   <g id="svg_2" stroke="null">
    <polygon fill="#111f3c" points="27.726459503173828,18.976659893989563 22.19076156616211,18.976659893989563 19.69431495666504,23.582874417304993 24.909198760986328,23.582874417304993 " id="svg_3" stroke="null"/>
    <polygon fill="#111f3c" points="37.16649627685547,18.976659893989563 31.63079833984375,18.976659893989563 29.13435173034668,23.582874417304993 34.34923553466797,23.582874417304993 " id="svg_4" stroke="null"/>
    <polygon fill="#111f3c" points="44.34165954589844,18.976659893989563 41.07157516479492,18.976659893989563 38.57439041137695,23.582874417304993 44.34165954589844,23.582874417304993 " id="svg_5" stroke="null"/>
    <polygon fill="#111f3c" points="18.285682678222656,19.045074582099915 2.8571248054504395,19.045074582099915 2.8571248054504395,20.340791821479797 2.8571248054504395,23.582874417304993 15.469160079956055,23.582874417304993 " id="svg_6" stroke="null"/>
    <path fill="#111f3c" d="m2.96775,46.70191c0,1.60708 1.37618,2.90908 3.07317,2.90908l35.33893,0c1.69699,0 3.07317,-1.302 3.07317,-2.90908l0,-20.1199l-41.48527,0l0,20.1199zm15.53034,-11.39267c0,-1.60638 1.23089,-2.32615 2.74867,-1.60778l6.53723,3.09408c1.51778,0.71767 1.51778,1.88284 0,2.6019l-6.53723,3.09408c-1.51778,0.71767 -2.74867,-0.00209 -2.74867,-1.60778l0,-5.57451l0,0.00001z" id="svg_7" stroke="null"/>
   </g>
  </g>
  <g id="svg_8"/>
  <g id="svg_9"/>
  <g id="svg_10"/>
  <g id="svg_11"/>
  <g id="svg_12"/>
  <g id="svg_13"/>
  <g id="svg_14"/>
  <g id="svg_15"/>
  <g id="svg_16"/>
  <g id="svg_17"/>
  <g id="svg_18"/>
  <g id="svg_19"/>
  <g id="svg_20"/>
  <g id="svg_21"/>
  <g id="svg_22"/>
  <ellipse fill="#ff0000" stroke="#ff0000" stroke-width="1.5" cx="50.14841" cy="17.29098" id="svg_25" rx="4.15582" ry="3.89608"/>
 </g>
</svg>