<svg id="SvgjsSvg1001" width="288" height="288" xmlns="http://www.w3.org/2000/svg" version="1.1" xmlns:xlink="http://www.w3.org/1999/xlink" xmlns:svgjs="http://svgjs.com/svgjs"><defs id="SvgjsDefs1002"></defs><g id="SvgjsG1008" transform="matrix(0.9167,0,0,0.9167,11.995196822357173,11.474408809280405)"><svg xmlns="http://www.w3.org/2000/svg" width="288" height="288" enable-background="new 0 0 264 254" viewBox="0 0 264 254"><path fill-rule="evenodd" d="M175.569 202.223c.161-1.422.31-2.846.485-4.266.162-1.309.433-2.608.512-3.921.102-1.704.631-3.253 1.303-4.8 1.85-4.26 3.653-8.541 5.439-12.828.197-.475.23-1.049.221-1.574-.047-2.861-.145-5.721-.202-8.581-.064-3.16-.118-6.32-.153-9.481-.043-3.946-.082-7.893-.086-11.84-.006-6.417-.006-12.833.037-19.25.025-3.815.123-7.629.221-11.443.086-3.401.203-6.802.333-10.202.074-1.96.203-3.918.302-5.877.124-2.484.213-4.97.371-7.452.186-2.867.428-5.729.649-8.594.149-1.914.285-3.83.468-5.741.188-1.964.42-3.925.645-5.885.225-1.94.424-3.885.707-5.817.379-2.591.756-5.187 1.269-7.754.491-2.452 1.154-4.869 1.745-7.301.021-.086.066-.166.168-.407.191.614.382 1.081.482 1.566.65 3.161 1.341 6.316 1.903 9.493.456 2.58.79 5.183 1.108 7.784.283 2.31.48 4.631.699 6.948.229 2.413.448 4.826.647 7.241.11 1.339.169 2.682.253 4.023.138 2.217.279 4.434.415 6.651.052.858.101 1.716.132 2.575.085 2.334.178 4.669.236 7.004.188 7.646.458 15.291.518 22.938.068 8.829-.039 17.659-.1 26.488-.023 3.478-.117 6.956-.199 10.433-.104 4.355-.231 8.71-.334 13.065-.007.305.055.633.172.914 2.041 4.885 4.121 9.754 6.122 14.655.349.855.411 1.837.552 2.769.274 1.816.516 3.639.763 5.459.122.9.226 1.805.358 2.881-2.95-2.457-5.797-4.826-8.756-7.29 0 1.316 0 2.485 0 3.655 0 1.229 0 1.248-1.227 1.256-3.068.018-6.137.018-9.205.024-.091 0-.182-.011-.319-.02 0-1.593 0-3.167 0-4.884-.743.629-1.392 1.174-2.035 1.726-2.128 1.825-4.254 3.653-6.379 5.483-.054.045-.086.115-.128.174C175.645 202.223 175.606 202.223 175.569 202.223zM124.141 175.484c-1.176 0-2.287 0-3.43 0 0-7.544 0-15.057 0-22.647.703 0 1.406-.02 2.107.02.111.006.264.267.301.432.168.732.301 1.47.462 2.286 1.762-1.656 3.63-2.783 6.067-2.758 2.414.024 4.37.781 5.596 3.001.639-.514 1.229-1.026 1.856-1.484 1.878-1.364 3.982-1.842 6.243-1.362 2.581.549 3.945 2.351 4.464 4.811.259 1.229.378 2.507.391 3.764.046 4.472.019 8.943.017 13.415 0 .163-.022.327-.037.52-1.109 0-2.188 0-3.361 0 0-.206 0-.421 0-.635 0-4.396.016-8.794-.012-13.19-.005-.889-.072-1.798-.268-2.662-.561-2.48-2.38-3.189-4.562-2.651-1.554.383-2.684 1.423-3.673 2.618-.132.159-.141.453-.141.685-.008 5.032-.006 10.065-.006 15.099 0 .223 0 .447 0 .721-1.146 0-2.27 0-3.451 0 0-.242 0-.461 0-.682-.004-4.789.012-9.578-.032-14.367-.007-.744-.187-1.521-.452-2.221-.648-1.713-2.279-2.392-4.307-1.857-1.545.406-2.713 1.367-3.654 2.619-.115.153-.114.418-.114.633-.006 5.051-.005 10.103-.005 15.154C124.141 174.967 124.141 175.189 124.141 175.484zM179.764 94.905c-1.273-.795-2.454-1.543-3.646-2.274-9.526-5.853-19.763-10.058-30.491-13.12-4.713-1.345-9.494-2.408-14.323-3.233-2.948-.504-5.917-.895-8.887-1.257-2.403-.293-4.818-.493-7.232-.689-5.163-.42-10.336-.596-15.517-.51-2.318.039-4.637.09-6.953.197-2.05.095-4.097.267-6.144.418-1.45.107-2.901.213-4.347.364-1.776.186-3.55.399-5.321.634-1.897.251-3.792.522-5.683.821-1.576.249-3.143.552-4.714.831-.154.027-.31.048-.488-.054 2.162-.516 4.312-1.09 6.488-1.533 3.182-.646 6.375-1.242 9.578-1.774 2.126-.353 4.276-.575 6.419-.819 2.128-.243 4.259-.456 6.392-.653 1.189-.11 2.383-.205 3.577-.231 4.262-.096 8.525-.232 12.787-.212 2.874.014 5.748.235 8.617.421 2.176.142 4.351.32 6.514.582 2.546.308 5.098.626 7.613 1.112 4.059.784 8.126 1.575 12.129 2.6 11.867 3.04 23.014 7.806 33.412 14.302.373.233.598.441.523.952C179.919 92.786 179.864 93.808 179.764 94.905zM91.806 134.365c0 3.008 0 5.921 0 8.872-1.147 0-2.259 0-3.458 0 0-.203 0-.418 0-.633 0-9.256.002-18.513-.007-27.769 0-.449.064-.651.592-.767 2.801-.613 5.637-.917 8.486-.722 3.539.242 6.593 1.821 7.634 6.362.802 3.497.695 6.986-.548 10.378-1.099 3-3.294 4.684-6.461 5.113-2.011.272-3.968.125-5.848-.693C92.099 134.463 91.995 134.433 91.806 134.365zM91.809 123.94c0 2.093.018 4.187-.013 6.28-.007.492.145.781.603.901.981.256 1.953.591 2.951.732 2.831.401 5.162-.774 6.094-3.513.889-2.61.997-5.295.247-7.959-.544-1.932-1.789-3.214-3.83-3.625-1.884-.38-3.733-.113-5.59.208-.404.07-.468.232-.467.583C91.814 119.679 91.809 121.81 91.809 123.94zM102.63 165.371c-.19 3.557 1.552 6.445 5.542 6.793 2.392.209 4.697-.135 7.077-.782 0 1.05.015 2.068-.02 3.085-.004.118-.27.295-.438.328-1.198.242-2.396.568-3.607.648-1.984.131-3.989.207-5.929-.427-3.041-.994-4.768-3.185-5.56-6.188-.61-2.312-.684-4.662-.474-7.039.166-1.874.542-3.678 1.496-5.315 1.207-2.074 3.058-3.198 5.409-3.526 1.524-.213 3.049-.223 4.547.165 2.768.717 4.348 2.604 5.039 5.292.496 1.929.598 3.896.358 5.877-.132 1.089-.13 1.089-1.238 1.089-3.834 0-7.668 0-11.501 0C103.108 165.371 102.886 165.371 102.63 165.371zM102.563 161.896c3.476 0 6.849 0 10.218 0 .172-1.902-.587-4.316-2.099-5.142-1.892-1.032-3.86-1.013-5.69.054C103.105 157.908 102.729 159.854 102.563 161.896zM121.978 122.276c-.073-1.049-.028-2.11-.246-3.114-.34-1.565-1.577-2.248-3.041-2.482-2.528-.405-5.004-.048-7.438.68-.174.052-.349.101-.563.164 0-1.003-.017-1.956.019-2.908.005-.14.237-.341.402-.394 2.491-.807 5.034-1.101 7.647-.803 1.539.175 2.999.545 4.263 1.477 1.411 1.041 2.191 2.499 2.222 4.204.092 5.255.076 10.512.101 15.768.001.127-.019.255-.035.452-.595 0-1.169.021-1.739-.016-.139-.009-.305-.188-.387-.331-.334-.58-.641-1.175-.968-1.784-1.469 1.09-3.055 1.856-4.848 2.049-1.788.192-3.574.161-5.247-.658-1.355-.662-2.218-1.753-2.642-3.172-.494-1.655-.528-3.348-.102-5.019.602-2.362 2.247-3.657 4.543-4.195 1.987-.465 3.995-.388 6.004-.145C120.564 122.129 121.211 122.192 121.978 122.276zM121.915 127.808c0-.635-.015-1.271.005-1.905.012-.34-.129-.463-.452-.482-.407-.023-.812-.109-1.219-.121-1.576-.043-3.157-.153-4.729-.076-1.539.076-2.569 1.034-2.88 2.498-.106.501-.075 1.04-.054 1.56.058 1.424 1.022 2.589 2.375 2.767 2.259.297 4.346-.196 6.25-1.479.532-.358.807-.756.715-1.419C121.866 128.711 121.915 128.256 121.915 127.808zM165.396 125.435c-4.476 0-8.919 0-13.357 0-.251 3.082 1.243 5.959 4.729 6.521 2.47.398 4.891.119 7.291-.488.172-.043.344-.091.589-.157 0 1.026.016 1.994-.019 2.959-.005.124-.256.311-.418.344-1.16.233-2.32.537-3.496.622-2.248.163-4.508.234-6.674-.611-2.385-.93-3.955-2.657-4.713-5.057-1.143-3.624-1.176-7.293-.017-10.921.987-3.085 3.155-4.815 6.38-5.228 1.59-.203 3.165-.178 4.705.271 2.732.796 4.201 2.765 4.818 5.434C165.691 121.177 165.656 123.261 165.396 125.435zM151.959 122.152c3.477 0 6.849 0 10.279 0-.07-1.965-.307-3.871-2.121-4.971-1.874-1.136-3.908-1.043-5.778.04C152.501 118.285 152.117 120.162 151.959 122.152zM200.846 108.4c3.334 3.538 6.359 7.238 9.189 11.101 6.068 8.279 10.947 17.226 14.918 26.673 3.523 8.383 6.288 17.019 8.304 25.885.892 3.924 1.683 7.872 2.44 11.824.43 2.242.699 4.514 1.039 6.773.011.072.001.148-.055.231-.42-1.874-.834-3.747-1.259-5.62-2.267-9.98-5.13-19.781-8.827-29.332-4.879-12.596-11.16-24.423-19.352-35.19-1.921-2.526-4.046-4.896-6.057-7.355-.19-.234-.319-.587-.327-.889C200.825 111.163 200.846 109.823 200.846 108.4zM51.033 184.029c-.462-1-.879-1.869-1.253-2.757-.041-.096.131-.359.266-.438 1.882-1.085 3.167-2.685 4.062-4.632.17-.37.199-.701.067-1.107-2.366-7.313-4.714-14.631-7.065-21.949-.027-.085-.044-.173-.079-.311 1.174 0 2.312-.017 3.448.021.143.005.344.285.402.473 1.341 4.334 2.665 8.672 3.993 13.01.394 1.287.789 2.574 1.314 3.876 1.828-5.772 3.655-11.544 5.493-17.349 1.18 0 2.371 0 3.639 0-.34.998-.676 1.982-1.012 2.968-2.395 7.015-4.769 14.036-7.197 21.039-.759 2.188-1.883 4.194-3.739 5.667C52.669 183.099 51.852 183.514 51.033 184.029zM68.272 170.995c1.132.3 2.172.637 3.237.847 1.977.389 3.961.637 5.967.094 2.417-.654 2.623-3.092 1.846-4.611-.451-.881-1.292-1.213-2.227-1.25-1.102-.044-2.211.039-3.31-.034-.882-.06-1.776-.191-2.625-.431-1.41-.396-2.392-1.355-2.948-2.701-.725-1.752-.829-3.579-.448-5.423.499-2.409 2.119-3.718 4.404-4.306 1.848-.475 3.734-.476 5.607-.228 1.391.184 2.761.521 4.144.777.349.064.481.22.471.59-.027.989-.009 1.981-.009 3.015-.896-.252-1.75-.535-2.624-.729-2.19-.488-4.39-.784-6.621-.203-2.379.62-2.737 2.862-1.966 4.558.413.906 1.232 1.27 2.183 1.299 1.083.035 2.173-.04 3.253.031.901.059 1.818.174 2.686.415 2.44.679 3.454 2.632 3.763 4.776.177 1.231.159 2.455-.161 3.658-.586 2.21-2.137 3.432-4.257 3.995-1.862.495-3.77.495-5.661.249-1.41-.186-2.8-.523-4.2-.787-.396-.074-.528-.283-.514-.695C68.295 172.951 68.272 171.998 68.272 170.995zM167.478 157.316c-1.097-.291-2.123-.619-3.173-.83-2.014-.406-4.038-.629-6.078-.086-2.377.633-2.73 2.872-1.957 4.563.414.907 1.234 1.267 2.186 1.296 1.084.033 2.174-.042 3.254.03.901.06 1.816.178 2.686.418 2.436.675 3.453 2.641 3.758 4.779.175 1.232.156 2.455-.164 3.658-.588 2.211-2.142 3.429-4.262 3.99-1.861.494-3.769.495-5.66.246-1.392-.182-2.762-.523-4.145-.776-.42-.077-.58-.266-.563-.71.034-.949.01-1.901.01-2.932.797.235 1.528.465 2.268.666 1.588.434 3.215.65 4.854.605.822-.022 1.672-.178 2.449-.447 1.617-.563 2.027-1.881 1.834-3.363-.201-1.559-1.199-2.335-2.811-2.365-1.382-.025-2.765-.039-4.145-.111-2.487-.131-4.275-1.613-4.869-4.096-.43-1.801-.486-3.625.219-5.381.826-2.059 2.533-3.022 4.591-3.396 3.172-.578 6.296-.21 9.372.681.227.066.363.165.355.458C167.463 155.24 167.478 156.269 167.478 157.316zM29.878 170.973c.958.273 1.832.576 2.73.768 2.007.428 4.023.725 6.083.3 2.493-.513 3.025-2.519 2.387-4.399-.326-.959-1.283-1.559-2.415-1.574-1.085-.014-2.174.051-3.254-.026-.919-.065-1.867-.165-2.733-.456-2.105-.707-3.101-2.385-3.348-4.475-.14-1.186-.142-2.432.06-3.604.417-2.42 2.084-3.733 4.369-4.324 1.847-.477 3.734-.48 5.607-.232 1.391.184 2.763.514 4.143.784.158.031.309.099.459.148 0 1.167 0 2.302 0 3.431-1.072-.287-2.113-.633-3.181-.839-2.016-.39-4.044-.626-6.081-.067-2.446.673-2.683 3.033-1.883 4.635.423.85 1.216 1.188 2.121 1.217 1.103.035 2.211-.041 3.31.031.901.061 1.816.184 2.683.427 2.399.675 3.433 2.641 3.73 4.804.167 1.215.155 2.421-.159 3.604-.598 2.251-2.179 3.477-4.354 4.029-1.851.471-3.735.471-5.607.225-1.41-.186-2.8-.521-4.199-.789-.339-.065-.485-.238-.475-.613C29.896 172.989 29.878 172.004 29.878 170.973zM68.946 130.911c.798.228 1.517.451 2.246.637 1.98.505 3.991.736 6.027.504.965-.11 1.926-.369 2.565-1.188.755-.969.766-2.074.357-3.175-.373-1.005-1.207-1.437-2.226-1.484-1.398-.064-2.8-.044-4.197-.114-1.614-.081-3.069-.566-4.146-1.864-.621-.748-.958-1.624-1.139-2.568-.27-1.407-.314-2.818.094-4.201.644-2.176 2.254-3.29 4.359-3.798 1.795-.434 3.621-.482 5.439-.225 1.427.202 2.836.522 4.257.77.359.063.49.209.479.584-.026.952-.009 1.905-.009 2.918-.739-.207-1.441-.401-2.142-.602-1.958-.562-3.965-.692-5.975-.519-.768.066-1.566.35-2.247.724-1.05.577-1.302 1.64-1.181 2.757.116 1.084.584 1.969 1.748 2.265.393.1.802.168 1.206.184 1.473.055 2.952.016 4.418.134 2.694.215 4.64 2.333 4.867 5.045.096 1.148.12 2.272-.181 3.377-.598 2.191-2.176 3.351-4.279 3.885-1.884.479-3.808.478-5.718.228-1.391-.183-2.761-.518-4.144-.768-.36-.065-.497-.221-.487-.595C68.962 132.875 68.946 131.926 68.946 130.911zM145.227 113.969c0 1.032 0 2.075 0 3.153-1.99-.515-3.987-.661-6.006-.575-3.076.131-4.985 1.794-5.571 4.475-.562 2.573-.519 5.146.489 7.619.881 2.162 2.577 3.228 4.872 3.434 2.101.188 4.153-.103 6.218-.54 0 1.054 0 2.098 0 3.233-1.054.171-2.104.438-3.164.494-1.988.105-3.984.159-5.927-.463-2.542-.815-4.351-2.435-5.269-4.937-1.279-3.492-1.383-7.062-.321-10.621.977-3.274 3.333-5.074 6.609-5.681 2.669-.494 5.338-.32 7.973.335C145.16 113.905 145.186 113.938 145.227 113.969zM95.697 175.49c-1.383 0-2.734.079-4.072-.02-1.904-.142-3.332-1.602-3.71-3.694-.142-.784-.227-1.589-.229-2.385-.018-6.548-.01-13.096-.01-19.644 0-.183 0-.366 0-.583.747 0 1.448 0 2.18 0 .246 1.214.492 2.424.744 3.666 1.707 0 3.386 0 5.103 0 0 1.077 0 2.115 0 3.219-1.485 0-2.988 0-4.522 0-.018.203-.042.346-.042.488-.001 4.34-.005 8.681.009 13.021.001.363.082.738.186 1.09.323 1.087 1.009 1.594 2.136 1.606.728.009 1.457.001 2.229.001C95.697 173.332 95.697 174.385 95.697 175.49zM53.365 115.023c.693 0 1.343 0 2.06 0 0 1.804 0 3.587 0 5.404 2.281 0 4.496 0 6.758 0 0-1.802 0-3.572 0-5.383.71 0 1.373 0 2.08 0 0 4.251 0 8.519 0 12.819-.668 0-1.332 0-2.042 0 0-1.837 0-3.662 0-5.534-2.274 0-4.501 0-6.775 0 0 1.835 0 3.66 0 5.525-.708 0-1.372 0-2.08 0C53.365 123.603 53.365 119.334 53.365 115.023zM27.26 127.895c.875-2.058 1.716-4.038 2.558-6.017.909-2.137 1.828-4.269 2.717-6.415.144-.347.297-.501.684-.47.538.044 1.204-.157 1.587.095.378.248.478.926.689 1.421 1.541 3.604 3.079 7.209 4.617 10.814.071.166.128.337.216.571-.741 0-1.41.021-2.076-.017-.141-.008-.328-.205-.394-.357-.428-.988-.863-1.976-1.225-2.989-.159-.446-.392-.543-.819-.534-1.192.025-2.386.009-3.668.009.193-.591.342-1.121.549-1.626.044-.108.299-.18.458-.184.799-.018 1.599-.008 2.499-.008-.643-1.564-1.253-3.049-1.911-4.647-.73 1.782-1.415 3.453-2.1 5.123-.663 1.615-1.336 3.226-1.983 4.847-.115.288-.246.408-.563.394C28.517 127.876 27.937 127.895 27.26 127.895zM51.17 121.783c0 1.783.007 3.538-.013 5.292-.001.128-.171.322-.303.37-1.424.512-2.889.704-4.393.471-.603-.093-1.214-.181-1.796-.355-1.851-.556-3.069-1.773-3.608-3.638-.46-1.588-.477-3.194-.104-4.8.528-2.273 2.059-3.518 4.258-3.994 1.989-.43 3.961-.266 5.928.369 0 .622 0 1.252 0 1.878-.746-.181-1.487-.428-2.248-.53-1.242-.166-2.495-.177-3.694.284-1.443.555-2.176 1.703-2.299 3.164-.083.987-.011 2.024.209 2.989.431 1.886 1.797 2.624 3.408 2.814.82.096 1.661.017 2.534.017 0-1.53 0-2.91 0-4.331C49.753 121.783 50.417 121.783 51.17 121.783zM210.621 94.977c2.131-.665 3.132-2.281 3.78-4.138.462-1.32.733-2.707 1.067-3.981.116.606.236 1.332.396 2.05.309 1.386.771 2.713 1.561 3.909.666 1.01 1.518 1.784 2.658 2.102-.569.372-1.227.687-1.74 1.159-1.443 1.329-2.035 3.12-2.477 4.963-.17.711-.279 1.438-.449 2.166-.261-1.641-.592-3.262-1.287-4.783C213.413 96.851 212.432 95.538 210.621 94.977zM166.717 62.109c-2.157.788-2.823 2.667-3.378 4.61-.183.639-.267 1.306-.368 1.822-.337-1.133-.641-2.419-1.107-3.644-.49-1.286-1.326-2.326-2.801-2.793 2.297-.873 2.953-2.831 3.488-4.863.156-.588.243-1.194.365-1.815C163.483 58.063 163.809 60.794 166.717 62.109zM209.979 45.216c2.114-.959 2.345-2.973 2.797-4.901.44 1.952.69 3.951 2.787 4.899-2.091.955-2.349 2.947-2.786 4.903C212.326 48.193 212.093 46.185 209.979 45.216z" clip-rule="evenodd" fill="#3c4667" class="color000 svgShape"></path></svg></g></svg>