<?xml version="1.0" encoding="utf-8"?>
<!-- Generator: Adobe Illustrator 16.0.0, SVG Export Plug-In . SVG Version: 6.00 Build 0)  -->
<!DOCTYPE svg PUBLIC "-//W3C//DTD SVG 1.1//EN" "http://www.w3.org/Graphics/SVG/1.1/DTD/svg11.dtd">
<svg version="1.1" xmlns="http://www.w3.org/2000/svg" xmlns:xlink="http://www.w3.org/1999/xlink" x="0px" y="0px" width="264px"
	 height="254px" viewBox="0 0 264 254" enable-background="new 0 0 264 254" xml:space="preserve">
<g id="Layer_1">
	<g>
		<path fill-rule="evenodd" clip-rule="evenodd" d="M175.569,202.223c0.161-1.422,0.31-2.846,0.485-4.266
			c0.162-1.309,0.433-2.608,0.512-3.921c0.102-1.704,0.631-3.253,1.303-4.8c1.85-4.26,3.653-8.541,5.439-12.828
			c0.197-0.475,0.23-1.049,0.221-1.574c-0.047-2.861-0.145-5.721-0.202-8.581c-0.064-3.16-0.118-6.32-0.153-9.481
			c-0.043-3.946-0.082-7.893-0.086-11.84c-0.006-6.417-0.006-12.833,0.037-19.25c0.025-3.815,0.123-7.629,0.221-11.443
			c0.086-3.401,0.203-6.802,0.333-10.202c0.074-1.96,0.203-3.918,0.302-5.877c0.124-2.484,0.213-4.97,0.371-7.452
			c0.186-2.867,0.428-5.729,0.649-8.594c0.149-1.914,0.285-3.83,0.468-5.741c0.188-1.964,0.42-3.925,0.645-5.885
			c0.225-1.94,0.424-3.885,0.707-5.817c0.379-2.591,0.756-5.187,1.269-7.754c0.491-2.452,1.154-4.869,1.745-7.301
			c0.021-0.086,0.066-0.166,0.168-0.407c0.191,0.614,0.382,1.081,0.482,1.566c0.65,3.161,1.341,6.316,1.903,9.493
			c0.456,2.58,0.79,5.183,1.108,7.784c0.283,2.31,0.48,4.631,0.699,6.948c0.229,2.413,0.448,4.826,0.647,7.241
			c0.11,1.339,0.169,2.682,0.253,4.023c0.138,2.217,0.279,4.434,0.415,6.651c0.052,0.858,0.101,1.716,0.132,2.575
			c0.085,2.334,0.178,4.669,0.236,7.004c0.188,7.646,0.458,15.291,0.518,22.938c0.068,8.829-0.039,17.659-0.1,26.488
			c-0.023,3.478-0.117,6.956-0.199,10.433c-0.104,4.355-0.231,8.71-0.334,13.065c-0.007,0.305,0.055,0.633,0.172,0.914
			c2.041,4.885,4.121,9.754,6.122,14.655c0.349,0.855,0.411,1.837,0.552,2.769c0.274,1.816,0.516,3.639,0.763,5.459
			c0.122,0.9,0.226,1.805,0.358,2.881c-2.95-2.457-5.797-4.826-8.756-7.29c0,1.316,0,2.485,0,3.655c0,1.229,0,1.248-1.227,1.256
			c-3.068,0.018-6.137,0.018-9.205,0.024c-0.091,0-0.182-0.011-0.319-0.02c0-1.593,0-3.167,0-4.884
			c-0.743,0.629-1.392,1.174-2.035,1.726c-2.128,1.825-4.254,3.653-6.379,5.483c-0.054,0.045-0.086,0.115-0.128,0.174
			C175.645,202.223,175.606,202.223,175.569,202.223z"/>
		<path fill-rule="evenodd" clip-rule="evenodd" d="M124.141,175.484c-1.176,0-2.287,0-3.43,0c0-7.544,0-15.057,0-22.647
			c0.703,0,1.406-0.02,2.107,0.02c0.111,0.006,0.264,0.267,0.301,0.432c0.168,0.732,0.301,1.47,0.462,2.286
			c1.762-1.656,3.63-2.783,6.067-2.758c2.414,0.024,4.37,0.781,5.596,3.001c0.639-0.514,1.229-1.026,1.856-1.484
			c1.878-1.364,3.982-1.842,6.243-1.362c2.581,0.549,3.945,2.351,4.464,4.811c0.259,1.229,0.378,2.507,0.391,3.764
			c0.046,4.472,0.019,8.943,0.017,13.415c0,0.163-0.022,0.327-0.037,0.52c-1.109,0-2.188,0-3.361,0c0-0.206,0-0.421,0-0.635
			c0-4.396,0.016-8.794-0.012-13.19c-0.005-0.889-0.072-1.798-0.268-2.662c-0.561-2.48-2.38-3.189-4.562-2.651
			c-1.554,0.383-2.684,1.423-3.673,2.618c-0.132,0.159-0.141,0.453-0.141,0.685c-0.008,5.032-0.006,10.065-0.006,15.099
			c0,0.223,0,0.447,0,0.721c-1.146,0-2.27,0-3.451,0c0-0.242,0-0.461,0-0.682c-0.004-4.789,0.012-9.578-0.032-14.367
			c-0.007-0.744-0.187-1.521-0.452-2.221c-0.648-1.713-2.279-2.392-4.307-1.857c-1.545,0.406-2.713,1.367-3.654,2.619
			c-0.115,0.153-0.114,0.418-0.114,0.633c-0.006,5.051-0.005,10.103-0.005,15.154C124.141,174.967,124.141,175.189,124.141,175.484z
			"/>
		<path fill-rule="evenodd" clip-rule="evenodd" d="M179.764,94.905c-1.273-0.795-2.454-1.543-3.646-2.274
			c-9.526-5.853-19.763-10.058-30.491-13.12c-4.713-1.345-9.494-2.408-14.323-3.233c-2.948-0.504-5.917-0.895-8.887-1.257
			c-2.403-0.293-4.818-0.493-7.232-0.689c-5.163-0.42-10.336-0.596-15.517-0.51c-2.318,0.039-4.637,0.09-6.953,0.197
			c-2.05,0.095-4.097,0.267-6.144,0.418c-1.45,0.107-2.901,0.213-4.347,0.364c-1.776,0.186-3.55,0.399-5.321,0.634
			c-1.897,0.251-3.792,0.522-5.683,0.821c-1.576,0.249-3.143,0.552-4.714,0.831c-0.154,0.027-0.31,0.048-0.488-0.054
			c2.162-0.516,4.312-1.09,6.488-1.533c3.182-0.646,6.375-1.242,9.578-1.774c2.126-0.353,4.276-0.575,6.419-0.819
			c2.128-0.243,4.259-0.456,6.392-0.653c1.189-0.11,2.383-0.205,3.577-0.231c4.262-0.096,8.525-0.232,12.787-0.212
			c2.874,0.014,5.748,0.235,8.617,0.421c2.176,0.142,4.351,0.32,6.514,0.582c2.546,0.308,5.098,0.626,7.613,1.112
			c4.059,0.784,8.126,1.575,12.129,2.6c11.867,3.04,23.014,7.806,33.412,14.302c0.373,0.233,0.598,0.441,0.523,0.952
			C179.919,92.786,179.864,93.808,179.764,94.905z"/>
		<path fill-rule="evenodd" clip-rule="evenodd" d="M91.806,134.365c0,3.008,0,5.921,0,8.872c-1.147,0-2.259,0-3.458,0
			c0-0.203,0-0.418,0-0.633c0-9.256,0.002-18.513-0.007-27.769c0-0.449,0.064-0.651,0.592-0.767
			c2.801-0.613,5.637-0.917,8.486-0.722c3.539,0.242,6.593,1.821,7.634,6.362c0.802,3.497,0.695,6.986-0.548,10.378
			c-1.099,3-3.294,4.684-6.461,5.113c-2.011,0.272-3.968,0.125-5.848-0.693C92.099,134.463,91.995,134.433,91.806,134.365z
			 M91.809,123.94c0,2.093,0.018,4.187-0.013,6.28c-0.007,0.492,0.145,0.781,0.603,0.901c0.981,0.256,1.953,0.591,2.951,0.732
			c2.831,0.401,5.162-0.774,6.094-3.513c0.889-2.61,0.997-5.295,0.247-7.959c-0.544-1.932-1.789-3.214-3.83-3.625
			c-1.884-0.38-3.733-0.113-5.59,0.208c-0.404,0.07-0.468,0.232-0.467,0.583C91.814,119.679,91.809,121.81,91.809,123.94z"/>
		<path fill-rule="evenodd" clip-rule="evenodd" d="M102.63,165.371c-0.19,3.557,1.552,6.445,5.542,6.793
			c2.392,0.209,4.697-0.135,7.077-0.782c0,1.05,0.015,2.068-0.02,3.085c-0.004,0.118-0.27,0.295-0.438,0.328
			c-1.198,0.242-2.396,0.568-3.607,0.648c-1.984,0.131-3.989,0.207-5.929-0.427c-3.041-0.994-4.768-3.185-5.56-6.188
			c-0.61-2.312-0.684-4.662-0.474-7.039c0.166-1.874,0.542-3.678,1.496-5.315c1.207-2.074,3.058-3.198,5.409-3.526
			c1.524-0.213,3.049-0.223,4.547,0.165c2.768,0.717,4.348,2.604,5.039,5.292c0.496,1.929,0.598,3.896,0.358,5.877
			c-0.132,1.089-0.13,1.089-1.238,1.089c-3.834,0-7.668,0-11.501,0C103.108,165.371,102.886,165.371,102.63,165.371z
			 M102.563,161.896c3.476,0,6.849,0,10.218,0c0.172-1.902-0.587-4.316-2.099-5.142c-1.892-1.032-3.86-1.013-5.69,0.054
			C103.105,157.908,102.729,159.854,102.563,161.896z"/>
		<path fill-rule="evenodd" clip-rule="evenodd" d="M121.978,122.276c-0.073-1.049-0.028-2.11-0.246-3.114
			c-0.34-1.565-1.577-2.248-3.041-2.482c-2.528-0.405-5.004-0.048-7.438,0.68c-0.174,0.052-0.349,0.101-0.563,0.164
			c0-1.003-0.017-1.956,0.019-2.908c0.005-0.14,0.237-0.341,0.402-0.394c2.491-0.807,5.034-1.101,7.647-0.803
			c1.539,0.175,2.999,0.545,4.263,1.477c1.411,1.041,2.191,2.499,2.222,4.204c0.092,5.255,0.076,10.512,0.101,15.768
			c0.001,0.127-0.019,0.255-0.035,0.452c-0.595,0-1.169,0.021-1.739-0.016c-0.139-0.009-0.305-0.188-0.387-0.331
			c-0.334-0.58-0.641-1.175-0.968-1.784c-1.469,1.09-3.055,1.856-4.848,2.049c-1.788,0.192-3.574,0.161-5.247-0.658
			c-1.355-0.662-2.218-1.753-2.642-3.172c-0.494-1.655-0.528-3.348-0.102-5.019c0.602-2.362,2.247-3.657,4.543-4.195
			c1.987-0.465,3.995-0.388,6.004-0.145C120.564,122.129,121.211,122.192,121.978,122.276z M121.915,127.808
			c0-0.635-0.015-1.271,0.005-1.905c0.012-0.34-0.129-0.463-0.452-0.482c-0.407-0.023-0.812-0.109-1.219-0.121
			c-1.576-0.043-3.157-0.153-4.729-0.076c-1.539,0.076-2.569,1.034-2.88,2.498c-0.106,0.501-0.075,1.04-0.054,1.56
			c0.058,1.424,1.022,2.589,2.375,2.767c2.259,0.297,4.346-0.196,6.25-1.479c0.532-0.358,0.807-0.756,0.715-1.419
			C121.866,128.711,121.915,128.256,121.915,127.808z"/>
		<path fill-rule="evenodd" clip-rule="evenodd" d="M165.396,125.435c-4.476,0-8.919,0-13.357,0
			c-0.251,3.082,1.243,5.959,4.729,6.521c2.47,0.398,4.891,0.119,7.291-0.488c0.172-0.043,0.344-0.091,0.589-0.157
			c0,1.026,0.016,1.994-0.019,2.959c-0.005,0.124-0.256,0.311-0.418,0.344c-1.16,0.233-2.32,0.537-3.496,0.622
			c-2.248,0.163-4.508,0.234-6.674-0.611c-2.385-0.93-3.955-2.657-4.713-5.057c-1.143-3.624-1.176-7.293-0.017-10.921
			c0.987-3.085,3.155-4.815,6.38-5.228c1.59-0.203,3.165-0.178,4.705,0.271c2.732,0.796,4.201,2.765,4.818,5.434
			C165.691,121.177,165.656,123.261,165.396,125.435z M151.959,122.152c3.477,0,6.849,0,10.279,0
			c-0.07-1.965-0.307-3.871-2.121-4.971c-1.874-1.136-3.908-1.043-5.778,0.04C152.501,118.285,152.117,120.162,151.959,122.152z"/>
		<path fill-rule="evenodd" clip-rule="evenodd" d="M200.846,108.4c3.334,3.538,6.359,7.238,9.189,11.101
			c6.068,8.279,10.947,17.226,14.918,26.673c3.523,8.383,6.288,17.019,8.304,25.885c0.892,3.924,1.683,7.872,2.44,11.824
			c0.43,2.242,0.699,4.514,1.039,6.773c0.011,0.072,0.001,0.148-0.055,0.231c-0.42-1.874-0.834-3.747-1.259-5.62
			c-2.267-9.98-5.13-19.781-8.827-29.332c-4.879-12.596-11.16-24.423-19.352-35.19c-1.921-2.526-4.046-4.896-6.057-7.355
			c-0.19-0.234-0.319-0.587-0.327-0.889C200.825,111.163,200.846,109.823,200.846,108.4z"/>
		<path fill-rule="evenodd" clip-rule="evenodd" d="M51.033,184.029c-0.462-1-0.879-1.869-1.253-2.757
			c-0.041-0.096,0.131-0.359,0.266-0.438c1.882-1.085,3.167-2.685,4.062-4.632c0.17-0.37,0.199-0.701,0.067-1.107
			c-2.366-7.313-4.714-14.631-7.065-21.949c-0.027-0.085-0.044-0.173-0.079-0.311c1.174,0,2.312-0.017,3.448,0.021
			c0.143,0.005,0.344,0.285,0.402,0.473c1.341,4.334,2.665,8.672,3.993,13.01c0.394,1.287,0.789,2.574,1.314,3.876
			c1.828-5.772,3.655-11.544,5.493-17.349c1.18,0,2.371,0,3.639,0c-0.34,0.998-0.676,1.982-1.012,2.968
			c-2.395,7.015-4.769,14.036-7.197,21.039c-0.759,2.188-1.883,4.194-3.739,5.667C52.669,183.099,51.852,183.514,51.033,184.029z"/>
		<path fill-rule="evenodd" clip-rule="evenodd" d="M68.272,170.995c1.132,0.3,2.172,0.637,3.237,0.847
			c1.977,0.389,3.961,0.637,5.967,0.094c2.417-0.654,2.623-3.092,1.846-4.611c-0.451-0.881-1.292-1.213-2.227-1.25
			c-1.102-0.044-2.211,0.039-3.31-0.034c-0.882-0.06-1.776-0.191-2.625-0.431c-1.41-0.396-2.392-1.355-2.948-2.701
			c-0.725-1.752-0.829-3.579-0.448-5.423c0.499-2.409,2.119-3.718,4.404-4.306c1.848-0.475,3.734-0.476,5.607-0.228
			c1.391,0.184,2.761,0.521,4.144,0.777c0.349,0.064,0.481,0.22,0.471,0.59c-0.027,0.989-0.009,1.981-0.009,3.015
			c-0.896-0.252-1.75-0.535-2.624-0.729c-2.19-0.488-4.39-0.784-6.621-0.203c-2.379,0.62-2.737,2.862-1.966,4.558
			c0.413,0.906,1.232,1.27,2.183,1.299c1.083,0.035,2.173-0.04,3.253,0.031c0.901,0.059,1.818,0.174,2.686,0.415
			c2.44,0.679,3.454,2.632,3.763,4.776c0.177,1.231,0.159,2.455-0.161,3.658c-0.586,2.21-2.137,3.432-4.257,3.995
			c-1.862,0.495-3.77,0.495-5.661,0.249c-1.41-0.186-2.8-0.523-4.2-0.787c-0.396-0.074-0.528-0.283-0.514-0.695
			C68.295,172.951,68.272,171.998,68.272,170.995z"/>
		<path fill-rule="evenodd" clip-rule="evenodd" d="M167.478,157.316c-1.097-0.291-2.123-0.619-3.173-0.83
			c-2.014-0.406-4.038-0.629-6.078-0.086c-2.377,0.633-2.73,2.872-1.957,4.563c0.414,0.907,1.234,1.267,2.186,1.296
			c1.084,0.033,2.174-0.042,3.254,0.03c0.901,0.06,1.816,0.178,2.686,0.418c2.436,0.675,3.453,2.641,3.758,4.779
			c0.175,1.232,0.156,2.455-0.164,3.658c-0.588,2.211-2.142,3.429-4.262,3.99c-1.861,0.494-3.769,0.495-5.66,0.246
			c-1.392-0.182-2.762-0.523-4.145-0.776c-0.42-0.077-0.58-0.266-0.563-0.71c0.034-0.949,0.01-1.901,0.01-2.932
			c0.797,0.235,1.528,0.465,2.268,0.666c1.588,0.434,3.215,0.65,4.854,0.605c0.822-0.022,1.672-0.178,2.449-0.447
			c1.617-0.563,2.027-1.881,1.834-3.363c-0.201-1.559-1.199-2.335-2.811-2.365c-1.382-0.025-2.765-0.039-4.145-0.111
			c-2.487-0.131-4.275-1.613-4.869-4.096c-0.43-1.801-0.486-3.625,0.219-5.381c0.826-2.059,2.533-3.022,4.591-3.396
			c3.172-0.578,6.296-0.21,9.372,0.681c0.227,0.066,0.363,0.165,0.355,0.458C167.463,155.24,167.478,156.269,167.478,157.316z"/>
		<path fill-rule="evenodd" clip-rule="evenodd" d="M29.878,170.973c0.958,0.273,1.832,0.576,2.73,0.768
			c2.007,0.428,4.023,0.725,6.083,0.3c2.493-0.513,3.025-2.519,2.387-4.399c-0.326-0.959-1.283-1.559-2.415-1.574
			c-1.085-0.014-2.174,0.051-3.254-0.026c-0.919-0.065-1.867-0.165-2.733-0.456c-2.105-0.707-3.101-2.385-3.348-4.475
			c-0.14-1.186-0.142-2.432,0.06-3.604c0.417-2.42,2.084-3.733,4.369-4.324c1.847-0.477,3.734-0.48,5.607-0.232
			c1.391,0.184,2.763,0.514,4.143,0.784c0.158,0.031,0.309,0.099,0.459,0.148c0,1.167,0,2.302,0,3.431
			c-1.072-0.287-2.113-0.633-3.181-0.839c-2.016-0.39-4.044-0.626-6.081-0.067c-2.446,0.673-2.683,3.033-1.883,4.635
			c0.423,0.85,1.216,1.188,2.121,1.217c1.103,0.035,2.211-0.041,3.31,0.031c0.901,0.061,1.816,0.184,2.683,0.427
			c2.399,0.675,3.433,2.641,3.73,4.804c0.167,1.215,0.155,2.421-0.159,3.604c-0.598,2.251-2.179,3.477-4.354,4.029
			c-1.851,0.471-3.735,0.471-5.607,0.225c-1.41-0.186-2.8-0.521-4.199-0.789c-0.339-0.065-0.485-0.238-0.475-0.613
			C29.896,172.989,29.878,172.004,29.878,170.973z"/>
		<path fill-rule="evenodd" clip-rule="evenodd" d="M68.946,130.911c0.798,0.228,1.517,0.451,2.246,0.637
			c1.98,0.505,3.991,0.736,6.027,0.504c0.965-0.11,1.926-0.369,2.565-1.188c0.755-0.969,0.766-2.074,0.357-3.175
			c-0.373-1.005-1.207-1.437-2.226-1.484c-1.398-0.064-2.8-0.044-4.197-0.114c-1.614-0.081-3.069-0.566-4.146-1.864
			c-0.621-0.748-0.958-1.624-1.139-2.568c-0.27-1.407-0.314-2.818,0.094-4.201c0.644-2.176,2.254-3.29,4.359-3.798
			c1.795-0.434,3.621-0.482,5.439-0.225c1.427,0.202,2.836,0.522,4.257,0.77c0.359,0.063,0.49,0.209,0.479,0.584
			c-0.026,0.952-0.009,1.905-0.009,2.918c-0.739-0.207-1.441-0.401-2.142-0.602c-1.958-0.562-3.965-0.692-5.975-0.519
			c-0.768,0.066-1.566,0.35-2.247,0.724c-1.05,0.577-1.302,1.64-1.181,2.757c0.116,1.084,0.584,1.969,1.748,2.265
			c0.393,0.1,0.802,0.168,1.206,0.184c1.473,0.055,2.952,0.016,4.418,0.134c2.694,0.215,4.64,2.333,4.867,5.045
			c0.096,1.148,0.12,2.272-0.181,3.377c-0.598,2.191-2.176,3.351-4.279,3.885c-1.884,0.479-3.808,0.478-5.718,0.228
			c-1.391-0.183-2.761-0.518-4.144-0.768c-0.36-0.065-0.497-0.221-0.487-0.595C68.962,132.875,68.946,131.926,68.946,130.911z"/>
		<path fill-rule="evenodd" clip-rule="evenodd" d="M145.227,113.969c0,1.032,0,2.075,0,3.153c-1.99-0.515-3.987-0.661-6.006-0.575
			c-3.076,0.131-4.985,1.794-5.571,4.475c-0.562,2.573-0.519,5.146,0.489,7.619c0.881,2.162,2.577,3.228,4.872,3.434
			c2.101,0.188,4.153-0.103,6.218-0.54c0,1.054,0,2.098,0,3.233c-1.054,0.171-2.104,0.438-3.164,0.494
			c-1.988,0.105-3.984,0.159-5.927-0.463c-2.542-0.815-4.351-2.435-5.269-4.937c-1.279-3.492-1.383-7.062-0.321-10.621
			c0.977-3.274,3.333-5.074,6.609-5.681c2.669-0.494,5.338-0.32,7.973,0.335C145.16,113.905,145.186,113.938,145.227,113.969z"/>
		<path fill-rule="evenodd" clip-rule="evenodd" d="M95.697,175.49c-1.383,0-2.734,0.079-4.072-0.02
			c-1.904-0.142-3.332-1.602-3.71-3.694c-0.142-0.784-0.227-1.589-0.229-2.385c-0.018-6.548-0.01-13.096-0.01-19.644
			c0-0.183,0-0.366,0-0.583c0.747,0,1.448,0,2.18,0c0.246,1.214,0.492,2.424,0.744,3.666c1.707,0,3.386,0,5.103,0
			c0,1.077,0,2.115,0,3.219c-1.485,0-2.988,0-4.522,0c-0.018,0.203-0.042,0.346-0.042,0.488c-0.001,4.34-0.005,8.681,0.009,13.021
			c0.001,0.363,0.082,0.738,0.186,1.09c0.323,1.087,1.009,1.594,2.136,1.606c0.728,0.009,1.457,0.001,2.229,0.001
			C95.697,173.332,95.697,174.385,95.697,175.49z"/>
		<path fill-rule="evenodd" clip-rule="evenodd" d="M53.365,115.023c0.693,0,1.343,0,2.06,0c0,1.804,0,3.587,0,5.404
			c2.281,0,4.496,0,6.758,0c0-1.802,0-3.572,0-5.383c0.71,0,1.373,0,2.08,0c0,4.251,0,8.519,0,12.819c-0.668,0-1.332,0-2.042,0
			c0-1.837,0-3.662,0-5.534c-2.274,0-4.501,0-6.775,0c0,1.835,0,3.66,0,5.525c-0.708,0-1.372,0-2.08,0
			C53.365,123.603,53.365,119.334,53.365,115.023z"/>
		<path fill-rule="evenodd" clip-rule="evenodd" d="M27.26,127.895c0.875-2.058,1.716-4.038,2.558-6.017
			c0.909-2.137,1.828-4.269,2.717-6.415c0.144-0.347,0.297-0.501,0.684-0.47c0.538,0.044,1.204-0.157,1.587,0.095
			c0.378,0.248,0.478,0.926,0.689,1.421c1.541,3.604,3.079,7.209,4.617,10.814c0.071,0.166,0.128,0.337,0.216,0.571
			c-0.741,0-1.41,0.021-2.076-0.017c-0.141-0.008-0.328-0.205-0.394-0.357c-0.428-0.988-0.863-1.976-1.225-2.989
			c-0.159-0.446-0.392-0.543-0.819-0.534c-1.192,0.025-2.386,0.009-3.668,0.009c0.193-0.591,0.342-1.121,0.549-1.626
			c0.044-0.108,0.299-0.18,0.458-0.184c0.799-0.018,1.599-0.008,2.499-0.008c-0.643-1.564-1.253-3.049-1.911-4.647
			c-0.73,1.782-1.415,3.453-2.1,5.123c-0.663,1.615-1.336,3.226-1.983,4.847c-0.115,0.288-0.246,0.408-0.563,0.394
			C28.517,127.876,27.937,127.895,27.26,127.895z"/>
		<path fill-rule="evenodd" clip-rule="evenodd" d="M51.17,121.783c0,1.783,0.007,3.538-0.013,5.292
			c-0.001,0.128-0.171,0.322-0.303,0.37c-1.424,0.512-2.889,0.704-4.393,0.471c-0.603-0.093-1.214-0.181-1.796-0.355
			c-1.851-0.556-3.069-1.773-3.608-3.638c-0.46-1.588-0.477-3.194-0.104-4.8c0.528-2.273,2.059-3.518,4.258-3.994
			c1.989-0.43,3.961-0.266,5.928,0.369c0,0.622,0,1.252,0,1.878c-0.746-0.181-1.487-0.428-2.248-0.53
			c-1.242-0.166-2.495-0.177-3.694,0.284c-1.443,0.555-2.176,1.703-2.299,3.164c-0.083,0.987-0.011,2.024,0.209,2.989
			c0.431,1.886,1.797,2.624,3.408,2.814c0.82,0.096,1.661,0.017,2.534,0.017c0-1.53,0-2.91,0-4.331
			C49.753,121.783,50.417,121.783,51.17,121.783z"/>
		<path fill-rule="evenodd" clip-rule="evenodd" d="M210.621,94.977c2.131-0.665,3.132-2.281,3.78-4.138
			c0.462-1.32,0.733-2.707,1.067-3.981c0.116,0.606,0.236,1.332,0.396,2.05c0.309,1.386,0.771,2.713,1.561,3.909
			c0.666,1.01,1.518,1.784,2.658,2.102c-0.569,0.372-1.227,0.687-1.74,1.159c-1.443,1.329-2.035,3.12-2.477,4.963
			c-0.17,0.711-0.279,1.438-0.449,2.166c-0.261-1.641-0.592-3.262-1.287-4.783C213.413,96.851,212.432,95.538,210.621,94.977z"/>
		<path fill-rule="evenodd" clip-rule="evenodd" d="M166.717,62.109c-2.157,0.788-2.823,2.667-3.378,4.61
			c-0.183,0.639-0.267,1.306-0.368,1.822c-0.337-1.133-0.641-2.419-1.107-3.644c-0.49-1.286-1.326-2.326-2.801-2.793
			c2.297-0.873,2.953-2.831,3.488-4.863c0.156-0.588,0.243-1.194,0.365-1.815C163.483,58.063,163.809,60.794,166.717,62.109z"/>
		<path fill-rule="evenodd" clip-rule="evenodd" d="M209.979,45.216c2.114-0.959,2.345-2.973,2.797-4.901
			c0.44,1.952,0.69,3.951,2.787,4.899c-2.091,0.955-2.349,2.947-2.786,4.903C212.326,48.193,212.093,46.185,209.979,45.216z"/>
	</g>
</g>
<g id="Warstwa_2">
</g>
</svg>
